#N canvas -318 -1436 2550 1380 10;
#X msg 359 88 close;
#X msg 301 88 devices;
#X floatatom 408 64 5 0 0 0 - - - 0;
#X msg 408 88 open \$1;
#X obj 408 134 comport 1 115200;
#X obj 408 182 serial_print any;
#X obj 333 481 unpack f;
#X floatatom 333 502 5 0 0 0 - - - 0;
#X obj 408 481 unpack f;
#X floatatom 408 502 5 0 0 0 - - - 0;
#X floatatom 608 498 5 0 0 0 - - - 0;
#X obj 608 450 unpack f f f;
#X floatatom 644 498 5 0 0 0 - - - 0;
#X floatatom 682 498 5 0 0 0 - - - 0;
#X obj 408 230 list prepend;
#X obj 408 278 list trim;
#X obj 477 481 unpack f;
#X floatatom 477 502 5 0 0 0 - - - 0;
#X obj 845 492 s down_detected;
#X obj 758 492 s up_detected;
#X text 418 520 y;
#X obj 491 584 s swing_position;
#X obj 1310 34 cnv 16 1350 600 empty empty Swing\ Sound 20 12 0 16 #c6ffc7 #404040 0;
#X obj 1421 167 bang;
#X obj 1428 361 vsl 15 128 0 30 0 0 empty empty empty 0 -9 0 10 #fcfcfc #000000 #000000 0 1;
#X obj 1423 522 line~;
#X floatatom 1487 498 0 0 0 0 - - - 0;
#X obj 1423 572 s~ mySpeed;
#X obj 1427 316 line;
#X msg 1422 499 \$1 100;
#X obj 1421 87 r up_detected;
#X obj 1583 85 r down_detected;
#X obj 1584 116 bang;
#X obj 1423 281 30 100;
#X obj 1481 282 r swing_position;
#X obj 22 33 cnv 16 185 48 empty empty GolfTrainer 16 24 0 24 #ff8300 #404040 0;
#X obj 331 791 packOSC;
#X obj 331 910 netsend -u -b;
#X obj 380 857 loadbang;
#X obj 332 827 cyclone/prepend send;
#X msg 380 878 connect 127.0.0.1 32000;
#X msg 213 749 /launch_angle \$1;
#X text 343 520 x;
#X text 487 520 z;
#X obj 209 602 spigot;
#X obj 2035 452 *~ 1;
#X obj 2034 483 dac~;
#X obj 1967 295 vsl 15 128 0.01 100 0 0 empty empty Add._Gain 0 -9 0 10 #fcfcfc #000000 #000000 0 1;
#X obj 2398 137 vsl 15 128 0.0001 0.03 0 0 empty empty empty 0 -9 0 10 #fcfcfc #000000 #000000 0 1;
#X obj 2398 300 s myDiameter;
#X obj 2176 201 r~ myFreq;
#X obj 2096 322 *~;
#X floatatom 1967 444 5 0 0 0 - - - 0;
#X obj 2096 370 *~;
#X obj 2156 322 r~ mySpGain;
#X obj 2156 274 r~ myAngleGain;
#X obj 2095 416 /~;
#X obj 2156 379 r~ myDistanceGain;
#N canvas 107 106 751 389 Angle 0;
#X obj 89 161 /~ 360;
#X obj 89 211 cos~;
#X obj 92 89 hsl 128 15 -180 180 0 0 empty empty Angle -2 -8 0 10 #fcfcfc #000000 #000000 0 1;
#X obj 89 137 line~;
#X msg 89 111 \$1 50;
#X obj 188 115 r myMet;
#X obj 188 140 snapshot~;
#X floatatom 188 164 0 0 0 0 - - - 0;
#X obj 226 208 r myMet;
#X obj 226 233 snapshot~;
#X floatatom 226 257 0 0 0 0 - - - 0;
#X obj 89 261 s~ myAngleGain;
#X obj 89 54 inlet;
#X obj 89 185 +~ 0.25;
#X obj 89 235 *~;
#X text 287 48 The sound source for this type of aeroacoustic sound is a dipole. This is created by multiplying the gain by sin squared of the elevation angle.;
#X connect 0 0 13 0;
#X connect 1 0 14 0;
#X connect 1 0 14 1;
#X connect 2 0 4 0;
#X connect 3 0 6 0;
#X connect 3 0 0 0;
#X connect 4 0 3 0;
#X connect 5 0 6 0;
#X connect 6 0 7 0;
#X connect 8 0 9 0;
#X connect 9 0 10 0;
#X connect 12 0 2 0;
#X connect 13 0 1 0;
#X connect 14 0 9 0;
#X connect 14 0 11 0;
#X restore 2426 454 pd Angle;
#X obj 2429 407 hsl 128 15 -180 180 0 0 empty empty Angle -2 -8 0 10 #fcfcfc #000000 #000000 0 1;
#X floatatom 2426 432 0 0 0 0 - - - 0;
#X obj 2393 80 loadbang;
#X obj 2095 274 vcf~ 70;
#X obj 2096 274 vcf~ 70;
#N canvas 304 63 706 441 FreqCalc 0;
#X obj 105 20 r~ mySpeed;
#X obj 105 44 *~ 0.189;
#X obj 199 17 r myDiameter;
#X obj 105 134 s~ myFreq;
#X text 35 227 Frequency of aeroacoustic tone calculated using a Strouhal number of 0.189. Frequency is depended on speed and diameter;
#X msg 199 41 \$1 20;
#X obj 199 65 line~;
#X obj 105 110 /~;
#X connect 0 0 1 0;
#X connect 1 0 7 0;
#X connect 2 0 5 0;
#X connect 5 0 6 0;
#X connect 6 0 7 1;
#X connect 7 0 3 0;
#X restore 2477 175 pd FreqCalc;
#N canvas 409 116 490 365 SpeedGain 0;
#X obj 53 42 r~ mySpeed;
#X obj 89 78 *~;
#X obj 126 78 *~;
#X obj 53 79 *~;
#X obj 53 106 *~;
#X obj 53 133 *~;
#X obj 51 183 s~ mySpGain;
#X obj 52 159 /~ 7.3e+08;
#X text 45 263 The gain of the aeroacoustic sound is proportional to the 6th power of the speed;
#X text 132 158 Normalised for a max speed of 30 m/s;
#X connect 0 0 1 0;
#X connect 0 0 1 1;
#X connect 0 0 2 0;
#X connect 0 0 2 1;
#X connect 0 0 3 1;
#X connect 0 0 3 0;
#X connect 1 0 4 1;
#X connect 2 0 5 1;
#X connect 3 0 4 0;
#X connect 4 0 5 0;
#X connect 5 0 7 0;
#X connect 7 0 6 0;
#X restore 2477 223 pd SpeedGain;
#N canvas 1434 48 473 717 DistGain 0;
#X obj 51 125 line~;
#X msg 51 99 \$1 50;
#X obj 51 149 *~;
#X obj 51 176 s~ myDistanceGain;
#X text 42 227 The gain of the aeroacoustic sound is proportional to the inverse square of the distance;
#X obj 51 74 r myDist;
#X connect 0 0 2 0;
#X connect 0 0 2 1;
#X connect 1 0 0 0;
#X connect 2 0 3 0;
#X connect 5 0 1 0;
#X restore 2477 127 pd DistGain;
#X text 1892 175 The actual sound effect with parameters derived from physics;
#X text 2396 484 Control the speed of the sound source;
#X text 2396 335 Control the angle of the sound source;
#X text 2395 64 Control the diameter of the sound source;
#X obj 2400 553 hsl 128 15 1 10 0 0 empty empty empty -2 -8 0 10 #fcfcfc #000000 #000000 0 1;
#X msg 2397 532 3;
#X obj 2397 505 loadbang;
#X obj 2397 599 s myDist;
#X floatatom 2431 580 0 0 0 0 - - - 0;
#X floatatom 2409 277 0 0 0 0 - - - 0;
#X text 2458 584 Speed in metres per second;
#X text 2428 531 Distance in metres;
#X text 2439 277 Diameter in metres;
#X text 2450 431 Angle in degrees;
#X obj 2094 201 noise~;
#X obj 2395 359 loadbang;
#X msg 2395 407 90;
#X msg 1998 226 100;
#X msg 2395 110 0.01;
#X obj 1309 667 cnv 16 1200 550 empty empty Ball\ Sound 20 12 0 16 #ffe3c6 #404040 0;
#X obj 945 492 s hit_detected;
#X obj 1572 1164 dac~;
#X msg 2214 726 Sound Design Toolkit \; (C) 2001 - 2016 \; \; Project SOb - soundobject.org \; Project CLOSED - closed.ircam.fr \; Project NIW - soundobject.org/niw \; Project SkAT-VG - skatvg.eu;
#X obj 2232 858 r pd;
#X obj 2232 885 route dsp;
#X obj 2232 910 select 1;
#X obj 2293 910 loadbang;
#X msg 1402 988 stiffness \$1;
#X msg 1537 987 dissipation \$1;
#X obj 1677 828 vsl 15 128 1 4 0 0 empty shape empty 0 -9 0 10 #fcfcfc #000000 #000000 0 1;
#X obj 1537 828 vsl 15 128 0 40 0 0 empty dissipation empty 0 -9 0 10 #fcfcfc #000000 #000000 0 1;
#X obj 1402 830 vsl 15 128 1000 1e+08 1 0 empty stiffness empty 0 -9 0 10 #fcfcfc #000000 #000000 0 1;
#X floatatom 1402 968 10 0 0 0 - - - 0;
#X floatatom 1537 966 5 0 0 0 - - - 0;
#X floatatom 1677 966 5 0 0 0 - - - 0;
#X obj 1402 1036 impact~ hammerimp objectimp 2;
#X text 1360 807 Impact stiffness;
#X text 1490 806 Impact dissipation;
#X msg 1677 987 shape \$1;
#X obj 1848 920 r hammerimp;
#X obj 1785 987 r objectimp;
#X obj 1784 947 inertial hammerimp;
#X obj 1785 1012 modal objectimp 3 1;
#X obj 1363 1012 r imp;
#X msg 1784 894 strike 0 -3;
#X text 1645 806 Contact shape;
#X obj 1611 1049 vsl 30 60 100 10000 0 0 empty empty empty 0 -9 0 10 #fcfcfc #000000 #000000 0 1;
#X msg 2232 936 \; hammerimp mass 0.01 \; hammerimp fragmentSize 1 \; objectimp freqs 500 1300 1700 \; objectimp decays 1 0.5 0.25 \; objectimp pickup 0 100 100 100 \; objectimp activeModes 3 \; objectimp fragmentSize 1 \; imp contact0 0 \; imp contact1 0 \; stiffness 480000 \; dissipation 29 \; shape 2.7 \;;
#X obj 1782 834 r hit_detected;
#X msg 1909 224 0;
#X obj 282 573 r hit_detected;
#X text 1780 807 Hit!;
#X text 1508 744 Ball settings;
#X text 422 903 Sending data to the Processing dashboard;
#X text 238 421 Unpacking the Serial data;
#X obj 763 35 cnv 16 500 220 empty empty Debug\ buttons 20 12 0 12 #c6feff #404040 0;
#X obj 805 93 bng 32 250 50 0 empty empty empty 17 7 0 10 #fcfcfc #000000 #000000;
#X obj 997 93 bng 32 250 50 0 empty empty empty 17 7 0 10 #fcfcfc #000000 #000000;
#X obj 1124 92 bng 32 250 50 0 empty empty empty 17 7 0 10 #fcfcfc #000000 #000000;
#X obj 1124 156 s hit_detected;
#X obj 805 157 s up_detected;
#X obj 805 133 1;
#X obj 997 157 s down_detected;
#X obj 997 133 1;
#X obj 943 218 s swing_position;
#X obj 943 187 line;
#X msg 888 128 set -150;
#X obj 943 157 -50 200;
#X text 976 188 Simulating swing down;
#X text 800 66 Club UP;
#X text 987 66 Club DOWN;
#X text 1116 66 Ball HIT;
#X text 1475 335 Getting the current position of the club to add sound while descending;
#X text 1432 211 Putting gain at 0 so that sound is not always active when club is raised;
#X text 1664 144 Raise the gain when club goes down;
#X text 1991 343 Gain;
#X text 2486 41 Parameters;
#X obj 1430 192 s gain_down;
#X obj 1584 149 s gain_up;
#X obj 1909 201 r gain_down;
#X obj 1997 201 r gain_up;
#X obj 681 626 spigot;
#X obj 713 587 r hit_detected;
#X msg 677 741 /launch_power \$1;
#X obj 308 637 clip -50 50;
#X msg 483 744 /swing_rotation \$1;
#X msg 322 748 /end_pitch \$1;
#X msg 408 41 7;
#X obj 304 664 cyclone/scale -50 50 0 100;
#X floatatom 453 63 5 0 0 0 - - - 0;
#X msg 453 40 5;
#X text 23 538 Getting the rotation of the club end when hit is detectd;
#X text 488 660 Clipping the values to constrain to positive values for processing;
#X obj 689 526 clip -20 10;
#X obj 693 559 cyclone/scale -20 10 100 0;
#X obj 1124 132 1;
#X obj 478 559 clip -100 0;
#X obj 477 608 cyclone/scale -100 0 100 0;
#X obj 1479 312 cyclone/scale 0 -100 0 30;
#X obj 411 427 route Roll Pitch Yaw Accel UP DOWN HIT, f 95;
#X obj 264 603 delay 200;
#X obj 265 627 0;
#X obj 805 605 delay 200;
#X obj 806 629 0;
#X obj 1784 867 select 1;
#X obj 1572 1133 *~ 1000;
#X msg 1897 278 100;
#X obj 1886 253 loadbang;
#X obj 1705 1026 loadbang;
#X msg 1662 1021 10000;
#X connect 0 0 4 0;
#X connect 1 0 4 0;
#X connect 2 0 3 0;
#X connect 3 0 4 0;
#X connect 4 0 5 0;
#X connect 5 0 14 0;
#X connect 5 1 14 1;
#X connect 6 0 7 0;
#X connect 7 0 44 0;
#X connect 8 0 9 0;
#X connect 9 0 151 0;
#X connect 11 0 10 0;
#X connect 11 1 12 0;
#X connect 11 2 13 0;
#X connect 13 0 160 0;
#X connect 14 0 15 0;
#X connect 15 0 166 0;
#X connect 16 0 17 0;
#X connect 17 0 163 0;
#X connect 23 0 33 0;
#X connect 23 0 144 0;
#X connect 24 0 29 0;
#X connect 24 0 26 0;
#X connect 25 0 27 0;
#X connect 28 0 24 0;
#X connect 29 0 25 0;
#X connect 30 0 23 0;
#X connect 31 0 32 0;
#X connect 32 0 145 0;
#X connect 33 0 28 0;
#X connect 34 0 165 0;
#X connect 36 0 39 0;
#X connect 38 0 40 0;
#X connect 39 0 37 0;
#X connect 40 0 37 0;
#X connect 41 0 36 0;
#X connect 44 0 41 0;
#X connect 45 0 46 0;
#X connect 45 0 46 1;
#X connect 47 0 45 1;
#X connect 47 0 52 0;
#X connect 48 0 49 0;
#X connect 48 0 76 0;
#X connect 50 0 62 1;
#X connect 50 0 63 1;
#X connect 51 0 53 0;
#X connect 53 0 56 0;
#X connect 54 0 53 1;
#X connect 55 0 51 1;
#X connect 56 0 45 0;
#X connect 57 0 56 1;
#X connect 59 0 60 0;
#X connect 60 0 58 0;
#X connect 61 0 85 0;
#X connect 62 0 63 0;
#X connect 63 0 51 0;
#X connect 71 0 74 0;
#X connect 71 0 75 0;
#X connect 72 0 71 0;
#X connect 73 0 72 0;
#X connect 81 0 62 0;
#X connect 82 0 83 0;
#X connect 83 0 59 0;
#X connect 85 0 48 0;
#X connect 90 0 91 0;
#X connect 91 0 92 0;
#X connect 92 0 114 0;
#X connect 93 0 114 0;
#X connect 94 0 102 0;
#X connect 95 0 102 0;
#X connect 96 0 101 0;
#X connect 97 0 100 0;
#X connect 98 0 99 0;
#X connect 99 0 94 0;
#X connect 100 0 95 0;
#X connect 101 0 105 0;
#X connect 102 1 172 0;
#X connect 105 0 102 0;
#X connect 106 0 108 0;
#X connect 107 0 109 0;
#X connect 110 0 102 0;
#X connect 111 0 108 0;
#X connect 113 0 172 1;
#X connect 115 0 171 0;
#X connect 117 0 44 1;
#X connect 117 0 167 0;
#X connect 123 0 128 0;
#X connect 123 0 133 0;
#X connect 124 0 130 0;
#X connect 124 0 134 0;
#X connect 125 0 162 0;
#X connect 128 0 127 0;
#X connect 130 0 129 0;
#X connect 132 0 131 0;
#X connect 133 0 132 0;
#X connect 134 0 132 0;
#X connect 146 0 116 0;
#X connect 147 0 84 0;
#X connect 148 0 150 0;
#X connect 149 0 148 1;
#X connect 149 0 169 0;
#X connect 150 0 36 0;
#X connect 151 0 155 0;
#X connect 152 0 36 0;
#X connect 153 0 36 0;
#X connect 154 0 2 0;
#X connect 155 0 153 0;
#X connect 156 0 3 0;
#X connect 157 0 156 0;
#X connect 160 0 161 0;
#X connect 161 0 148 0;
#X connect 162 0 126 0;
#X connect 163 0 21 0;
#X connect 163 0 164 0;
#X connect 164 0 152 0;
#X connect 165 0 24 0;
#X connect 166 0 6 0;
#X connect 166 1 8 0;
#X connect 166 2 16 0;
#X connect 166 3 11 0;
#X connect 166 4 19 0;
#X connect 166 5 18 0;
#X connect 166 6 87 0;
#X connect 167 0 168 0;
#X connect 168 0 44 1;
#X connect 169 0 170 0;
#X connect 170 0 148 1;
#X connect 171 0 111 0;
#X connect 172 0 88 0;
#X connect 172 0 88 1;
#X connect 173 0 47 0;
#X connect 174 0 173 0;
#X connect 175 0 176 0;
#X connect 176 0 113 0;
